<?xml version="1.0" encoding="UTF-8" standalone="no"?>
<!DOCTYPE svg PUBLIC "-//W3C//DTD SVG 1.1//EN" "http://www.w3.org/Graphics/SVG/1.1/DTD/svg11.dtd">
<svg width="100%" height="100%" viewBox="0 0 83 83" version="1.1" xmlns="http://www.w3.org/2000/svg" xmlns:xlink="http://www.w3.org/1999/xlink" xml:space="preserve" xmlns:serif="http://www.serif.com/" style="fill-rule:evenodd;clip-rule:evenodd;stroke-linejoin:round;stroke-miterlimit:2;">
    <g transform="matrix(1,0,0,1,-93.6404,-59.3106)">
        <g transform="matrix(0.33196,0,0,0.33196,-5.44548,51.6695)">
            <g id="camo-2" serif:id="camo 2" transform="matrix(1,0,0,1,695.793,-42.4264)">
                <circle id="path8266" cx="-273" cy="189.75" r="121.5" style="fill:rgb(72,62,55);"/>
                <clipPath id="_clip1">
                    <circle id="path82661" serif:id="path8266" cx="-273" cy="189.75" r="121.5"/>
                </clipPath>
                <g clip-path="url(#_clip1)">
                    <path id="path10857" d="M-280.168,120.822C-278.573,122.839 -277.869,125.442 -277.716,128.009C-277.563,130.576 -277.922,133.142 -278.247,135.693C-278.573,138.243 -278.866,140.825 -278.584,143.38C-278.302,145.936 -277.393,148.497 -275.603,150.343C-273.916,152.082 -271.611,153.045 -269.441,154.123C-268.356,154.661 -267.285,155.242 -266.323,155.977C-265.36,156.712 -264.504,157.61 -263.937,158.681C-263.388,159.719 -263.125,160.892 -263.048,162.064C-262.97,163.236 -263.071,164.413 -263.216,165.579C-263.507,167.91 -263.97,170.28 -263.531,172.588C-263.186,174.401 -262.298,176.07 -261.253,177.591C-260.208,179.113 -258.999,180.515 -257.913,182.007C-256.827,183.5 -255.853,185.109 -255.362,186.889C-254.871,188.668 -254.899,190.645 -255.746,192.285C-256.297,193.351 -257.179,194.24 -258.231,194.819C-259.282,195.398 -260.498,195.668 -261.697,195.611C-262.896,195.555 -264.075,195.175 -265.094,194.541C-266.113,193.907 -266.971,193.021 -267.593,191.995C-268.195,191.001 -268.573,189.891 -269.012,188.815C-269.451,187.739 -269.971,186.667 -270.792,185.844C-271.266,185.37 -271.836,184.988 -272.467,184.762C-273.098,184.537 -273.791,184.471 -274.447,184.608C-275.219,184.77 -275.92,185.208 -276.453,185.788C-276.987,186.369 -277.358,187.087 -277.589,187.841C-278.05,189.349 -277.957,190.964 -277.847,192.537C-277.737,194.11 -277.618,195.719 -278.03,197.241C-278.237,198.002 -278.578,198.734 -279.083,199.339C-279.588,199.945 -280.262,200.421 -281.022,200.631C-281.623,200.798 -282.266,200.796 -282.874,200.659C-283.483,200.522 -284.058,200.252 -284.572,199.898C-285.6,199.192 -286.373,198.171 -287.019,197.104C-287.666,196.037 -288.205,194.907 -288.878,193.856C-289.55,192.805 -290.377,191.819 -291.454,191.19C-292.338,190.673 -293.361,190.419 -294.384,190.376C-295.407,190.334 -296.431,190.499 -297.416,190.779C-299.385,191.339 -301.192,192.347 -303.073,193.156C-304.954,193.964 -307.002,194.582 -309.029,194.292C-310.043,194.146 -311.032,193.768 -311.835,193.132C-312.637,192.496 -313.242,191.595 -313.45,190.593C-313.636,189.691 -313.496,188.736 -313.122,187.894C-312.747,187.053 -312.147,186.322 -311.437,185.735C-310.018,184.561 -308.213,183.97 -306.429,183.508C-304.646,183.045 -302.817,182.678 -301.168,181.857C-300.343,181.446 -299.569,180.921 -298.933,180.255C-298.297,179.589 -297.802,178.777 -297.57,177.886C-297.367,177.105 -297.369,176.277 -297.527,175.485C-297.684,174.694 -297.994,173.937 -298.394,173.236C-299.193,171.833 -300.334,170.662 -301.46,169.505C-302.585,168.347 -303.721,167.169 -304.504,165.757C-304.895,165.051 -305.195,164.29 -305.339,163.496C-305.483,162.702 -305.469,161.874 -305.248,161.097C-304.876,159.789 -303.935,158.695 -302.814,157.924C-301.694,157.153 -300.398,156.677 -299.094,156.293C-297.789,155.908 -296.459,155.607 -295.179,155.147C-293.9,154.686 -292.657,154.052 -291.69,153.096C-290.823,152.239 -290.205,151.144 -289.854,149.976C-289.503,148.809 -289.412,147.57 -289.521,146.356C-289.739,143.927 -290.734,141.634 -291.907,139.496C-293.08,137.358 -294.443,135.324 -295.494,133.123C-296.545,130.923 -297.282,128.502 -297.089,126.071C-296.94,124.179 -296.215,122.335 -295.034,120.849C-293.853,119.363 -292.22,118.241 -290.408,117.675C-288.596,117.109 -286.613,117.101 -284.798,117.658C-282.984,118.214 -281.345,119.333 -280.168,120.822L-280.168,120.822Z" style="fill:rgb(103,108,83);fill-rule:nonzero;"/>
                    <path id="path8613" d="M-187.367,101.116C-198.204,105.086 -210.987,103.231 -220.248,96.343C-223.692,93.781 -226.648,90.598 -230.171,88.146C-231.933,86.921 -233.842,85.88 -235.898,85.262C-237.953,84.645 -240.164,84.463 -242.257,84.941C-243.346,85.189 -244.404,85.619 -245.302,86.285C-246.199,86.951 -246.931,87.861 -247.295,88.918C-247.702,90.099 -247.637,91.383 -247.565,92.63C-247.494,93.876 -247.425,95.16 -247.825,96.343C-248.132,97.25 -248.706,98.055 -249.419,98.694C-250.131,99.333 -250.979,99.811 -251.872,100.156C-253.658,100.847 -255.595,101.014 -257.5,101.21C-259.404,101.405 -261.345,101.647 -263.074,102.469C-263.939,102.88 -264.741,103.436 -265.379,104.15C-266.016,104.865 -266.483,105.742 -266.652,106.684C-266.788,107.442 -266.729,108.232 -266.501,108.967C-266.273,109.703 -265.877,110.384 -265.366,110.959C-264.343,112.11 -262.871,112.818 -261.348,113.048C-259.711,113.295 -258.035,113.018 -256.443,112.563C-254.851,112.108 -253.314,111.477 -251.73,110.995C-250.146,110.513 -248.486,110.179 -246.838,110.342C-246.014,110.424 -245.199,110.631 -244.454,110.991C-243.709,111.351 -243.034,111.867 -242.522,112.518C-241.726,113.529 -241.354,114.837 -241.357,116.124C-241.36,117.411 -241.72,118.68 -242.265,119.846C-243.354,122.178 -245.146,124.096 -246.607,126.215C-247.338,127.275 -247.992,128.398 -248.416,129.614C-248.84,130.829 -249.027,132.144 -248.813,133.414C-248.599,134.683 -247.964,135.901 -246.953,136.698C-246.448,137.097 -245.854,137.386 -245.225,137.521C-244.596,137.656 -243.931,137.635 -243.317,137.443C-242.731,137.26 -242.198,136.925 -241.752,136.503C-241.306,136.081 -240.946,135.574 -240.659,135.031C-240.085,133.946 -239.806,132.733 -239.541,131.534C-239.275,130.336 -239.012,129.121 -238.465,128.022C-238.191,127.473 -237.847,126.956 -237.416,126.518C-236.986,126.08 -236.469,125.722 -235.893,125.511C-235.075,125.211 -234.161,125.215 -233.325,125.458C-232.489,125.7 -231.729,126.171 -231.09,126.763C-229.812,127.945 -229.033,129.562 -228.352,131.164C-227.67,132.766 -227.042,134.421 -225.979,135.8C-225.448,136.49 -224.808,137.104 -224.058,137.546C-223.308,137.988 -222.444,138.254 -221.574,138.239C-220.625,138.222 -219.695,137.871 -218.93,137.309C-218.165,136.747 -217.561,135.981 -217.129,135.136C-216.265,133.445 -216.091,131.489 -216.096,129.59C-216.101,127.692 -216.268,125.784 -216.024,123.901C-215.902,122.96 -215.675,122.027 -215.287,121.161C-214.898,120.295 -214.342,119.496 -213.619,118.882C-212.31,117.77 -210.517,117.331 -208.804,117.446C-207.09,117.561 -205.446,118.188 -203.936,119.006C-200.916,120.643 -198.304,123.066 -195.057,124.185C-192.028,125.229 -188.586,125.01 -185.713,123.592C-182.841,122.173 -180.574,119.573 -179.561,116.534C-178.548,113.495 -178.801,110.055 -180.248,107.197C-181.695,104.338 -184.318,102.098 -187.367,101.116" style="fill:rgb(145,138,111);fill-rule:nonzero;"/>
                    <path id="path9219" d="M-374.943,183.861C-385.738,182.291 -393.416,172.559 -392.76,161.279C-392.563,157.898 -392.084,156.102 -390.481,152.735C-387.943,147.406 -383.864,143.491 -377.534,140.307C-374.14,138.6 -371.131,137.524 -360.359,134.166C-351.316,131.347 -339.097,126.316 -336.053,124.159C-329.449,119.479 -321.45,118.724 -314.221,122.098C-309.094,124.491 -305.412,128.577 -303.577,133.908C-302.944,135.747 -302.845,136.453 -302.833,139.212C-302.822,141.791 -302.93,142.745 -303.407,144.25C-304.95,149.122 -308.735,153.104 -313.366,154.728C-316.119,155.694 -320.534,155.736 -326.683,154.855C-333.186,153.924 -338.086,153.989 -340.917,155.045C-343.296,155.931 -345.098,157.128 -346.708,158.889C-348.965,161.359 -349.658,162.533 -353.465,170.336C-356.307,176.16 -357.932,178.283 -361.375,180.668C-363.493,182.135 -366.333,183.268 -369.107,183.752C-371.645,184.194 -372.539,184.211 -374.943,183.861L-374.943,183.861Z" style="fill:rgb(145,138,111);fill-rule:nonzero;"/>
                    <path id="path9258" d="M-302.958,210.943C-291.575,208.853 -280.234,215.013 -277.172,224.949C-274.216,234.545 -279.096,243.935 -289.835,249.314C-294.991,251.896 -299.579,253.146 -311.782,255.292C-325.896,257.775 -333.756,259.707 -345.136,263.493C-352.857,266.06 -354.984,266.862 -361.886,269.802C-363.909,270.663 -365.859,271.391 -366.22,271.419C-367.316,271.503 -370.04,270.279 -371.523,269.036C-372.838,267.934 -372.974,267.73 -373.74,265.691C-374.456,263.789 -374.531,263.337 -374.35,262.034C-373.736,257.639 -369.623,254.011 -364.086,252.982C-360.093,252.24 -356.586,252.405 -349.031,253.69C-343.908,254.561 -339.162,255.032 -336.732,254.911C-333.871,254.768 -329.999,253.742 -328.002,252.597C-324.818,250.772 -322.832,248.289 -321.861,244.92C-321.137,242.406 -321.007,240.899 -321.013,235.089C-321.019,229.675 -320.775,227.54 -319.855,224.965C-317.315,217.852 -310.703,212.365 -302.958,210.943L-302.958,210.943Z" style="fill:rgb(145,138,111);fill-rule:nonzero;"/>
                    <path id="path9297" d="M-184.29,268.733C-187.864,268.263 -191.103,266.346 -192.92,263.626C-194.194,261.718 -194.6,260.389 -194.602,258.13C-194.602,256.731 -194.438,256.046 -193.746,254.567C-193.01,252.993 -192.319,252.174 -188.832,248.742C-183.794,243.781 -183.229,242.817 -183.229,239.179C-183.229,236.253 -183.794,234.936 -186.41,231.754C-189.429,228.084 -190.574,226.496 -191.288,224.993C-191.909,223.683 -191.979,223.222 -191.979,220.485C-191.979,217.593 -191.936,217.346 -191.134,215.712C-189.531,212.447 -186.282,209.984 -182.699,209.317C-181.787,209.147 -179.862,209.08 -178.191,209.159C-171.46,209.479 -166.146,212.743 -163.237,218.345C-161.095,222.468 -160.799,225.894 -161.996,232.682C-162.796,237.219 -162.844,239.742 -162.224,244.686C-161.791,248.136 -161.791,248.484 -162.219,250.995C-163.832,260.446 -171.184,267.568 -180.539,268.741C-181.719,268.889 -182.688,268.995 -182.692,268.976C-182.696,268.958 -183.415,268.849 -184.29,268.733L-184.29,268.733Z" style="fill:rgb(103,108,83);fill-rule:nonzero;"/>
                    <path id="path19444" d="M-273.256,266.03C-274.542,265.259 -275.538,264.077 -276.325,262.801C-277.112,261.524 -277.71,260.143 -278.365,258.794C-279.02,257.445 -279.745,256.112 -280.745,254.994C-281.744,253.876 -283.049,252.98 -284.522,252.702C-285.978,252.428 -287.511,252.781 -288.8,253.511C-290.09,254.241 -291.15,255.328 -292.009,256.535C-293.727,258.949 -294.671,261.825 -296.189,264.37C-298.416,268.101 -302.023,271.121 -306.266,272.059C-309.633,272.804 -313.143,272.227 -316.582,272.478C-318.302,272.604 -320.03,272.945 -321.566,273.728C-323.103,274.51 -324.44,275.766 -325.092,277.363C-325.542,278.463 -325.652,279.697 -325.426,280.864C-325.2,282.032 -324.643,283.13 -323.851,284.017C-323.059,284.904 -322.036,285.579 -320.916,285.98C-319.797,286.382 -318.584,286.511 -317.403,286.378C-316.328,286.257 -315.291,285.925 -314.244,285.657C-313.197,285.389 -312.111,285.182 -311.039,285.318C-310.379,285.401 -309.733,285.617 -309.174,285.976C-308.614,286.335 -308.144,286.84 -307.857,287.439C-307.546,288.088 -307.456,288.831 -307.549,289.545C-307.642,290.258 -307.912,290.942 -308.284,291.557C-309.029,292.788 -310.158,293.731 -311.275,294.638C-312.392,295.545 -313.536,296.461 -314.332,297.66C-314.729,298.259 -315.034,298.927 -315.171,299.633C-315.308,300.339 -315.273,301.086 -315.016,301.758C-314.802,302.319 -314.439,302.818 -313.991,303.217C-313.543,303.616 -313.012,303.917 -312.449,304.126C-311.323,304.543 -310.092,304.589 -308.896,304.5C-307.699,304.41 -306.515,304.19 -305.318,304.091C-304.122,303.992 -302.893,304.019 -301.758,304.409C-300.831,304.729 -299.994,305.284 -299.291,305.967C-298.588,306.651 -298.015,307.46 -297.542,308.319C-296.598,310.038 -296.054,311.941 -295.408,313.792C-294.761,315.644 -293.98,317.498 -292.659,318.947C-291.999,319.672 -291.206,320.285 -290.31,320.682C-289.413,321.079 -288.41,321.253 -287.439,321.115C-285.982,320.908 -284.684,320.009 -283.771,318.856C-282.858,317.702 -282.296,316.308 -281.895,314.892C-281.494,313.476 -281.243,312.023 -280.881,310.597C-280.519,309.171 -280.036,307.755 -279.219,306.531C-278.143,304.919 -276.556,303.734 -275.104,302.45C-274.378,301.807 -273.677,301.131 -273.089,300.36C-272.501,299.59 -272.027,298.721 -271.794,297.78C-271.479,296.505 -271.622,295.151 -271.981,293.887C-272.341,292.623 -272.911,291.431 -273.462,290.237C-274.013,289.044 -274.551,287.834 -274.841,286.552C-275.132,285.27 -275.163,283.9 -274.711,282.666C-274.31,281.571 -273.542,280.63 -272.607,279.934C-271.671,279.238 -270.574,278.778 -269.443,278.498C-267.179,277.939 -264.811,278.084 -262.48,278.097C-260.148,278.109 -257.732,277.964 -255.66,276.895C-254.624,276.361 -253.694,275.594 -253.055,274.619C-252.416,273.644 -252.081,272.454 -252.217,271.296C-252.332,270.315 -252.779,269.386 -253.426,268.64C-254.074,267.894 -254.914,267.328 -255.825,266.947C-257.647,266.186 -259.695,266.164 -261.658,266.378C-263.621,266.593 -265.559,267.032 -267.53,267.152C-269.502,267.272 -271.563,267.047 -273.256,266.03L-273.256,266.03Z" style="fill:rgb(36,34,28);fill-rule:nonzero;"/>
                    <path id="path9784" d="M-213.598,326.064C-219.402,325.418 -223.901,322.683 -225.685,318.714C-225.916,318.202 -226.157,316.764 -226.237,315.429C-226.386,312.927 -226.218,311.975 -224.561,305.93C-223.661,302.643 -223.544,298.559 -224.295,296.621C-225.592,293.273 -228.484,290.708 -235.854,286.37C-238.12,285.036 -240.638,283.441 -241.449,282.826C-246.677,278.862 -249.351,273.252 -248.349,268.345C-247.107,262.259 -241.699,257.511 -233.876,255.64C-231.994,255.19 -231.35,255.133 -228.175,255.134C-224.955,255.135 -224.381,255.188 -222.473,255.66C-217.386,256.919 -213.863,259.144 -211.295,262.72C-208.737,266.28 -207.888,269.193 -206.959,277.587C-206.667,280.231 -206.245,283.265 -206.023,284.331C-204.595,291.176 -200.939,300.02 -198.899,301.561C-194.851,304.62 -192.874,308.047 -192.874,312.009C-192.874,317.6 -197.071,322.472 -203.912,324.825C-207.362,326.012 -210.483,326.411 -213.598,326.064L-213.598,326.064Z" style="fill:rgb(145,138,111);fill-rule:nonzero;"/>
                    <path id="path10688" d="M-327.778,179.869C-328.038,178.936 -328.59,178.093 -329.311,177.445C-330.031,176.797 -330.916,176.342 -331.851,176.085C-333.72,175.573 -335.736,175.855 -337.554,176.525C-341.844,178.103 -345.074,181.644 -347.999,185.156C-350.925,188.669 -353.846,192.381 -357.879,194.533C-362.065,196.768 -366.97,197.069 -371.605,198.091C-373.922,198.602 -376.221,199.312 -378.268,200.512C-380.315,201.713 -382.107,203.437 -383.091,205.596C-383.91,207.395 -384.135,209.48 -383.604,211.385C-383.073,213.29 -381.765,214.987 -380.004,215.887C-378.226,216.795 -376.13,216.859 -374.15,216.606C-372.17,216.352 -370.238,215.802 -368.258,215.545C-366.278,215.289 -364.183,215.347 -362.401,216.247C-361.511,216.697 -360.716,217.356 -360.169,218.191C-359.622,219.025 -359.331,220.038 -359.422,221.032C-359.532,222.233 -360.18,223.326 -360.974,224.234C-361.767,225.142 -362.713,225.903 -363.572,226.749C-364.432,227.594 -365.223,228.557 -365.599,229.703C-365.787,230.276 -365.866,230.889 -365.789,231.487C-365.712,232.085 -365.475,232.667 -365.082,233.124C-364.64,233.637 -364.012,233.977 -363.349,234.116C-362.685,234.255 -361.989,234.2 -361.339,234.008C-360.039,233.623 -358.959,232.718 -358.016,231.744C-357.073,230.771 -356.221,229.7 -355.167,228.847C-354.64,228.421 -354.063,228.051 -353.434,227.798C-352.805,227.545 -352.123,227.413 -351.447,227.464C-350.617,227.526 -349.819,227.866 -349.155,228.368C-348.491,228.87 -347.956,229.529 -347.538,230.249C-346.703,231.689 -346.338,233.345 -345.924,234.957C-345.51,236.57 -345.014,238.213 -343.977,239.515C-343.459,240.166 -342.807,240.721 -342.049,241.065C-341.292,241.41 -340.425,241.537 -339.612,241.356C-338.621,241.136 -337.756,240.463 -337.22,239.601C-336.684,238.738 -336.463,237.699 -336.51,236.684C-336.556,235.669 -336.859,234.677 -337.303,233.763C-337.747,232.849 -338.329,232.009 -338.955,231.21C-340.208,229.61 -341.652,228.139 -342.632,226.36C-343.122,225.47 -343.491,224.504 -343.624,223.496C-343.756,222.489 -343.644,221.438 -343.214,220.518C-342.86,219.759 -342.298,219.105 -341.635,218.594C-340.971,218.083 -340.207,217.711 -339.411,217.449C-337.82,216.925 -336.124,216.836 -334.452,216.729C-332.78,216.623 -331.081,216.489 -329.519,215.883C-328.738,215.58 -327.997,215.159 -327.375,214.598C-326.753,214.038 -326.251,213.334 -325.977,212.542C-325.695,211.729 -325.66,210.84 -325.821,209.995C-325.983,209.149 -326.336,208.347 -326.805,207.625C-327.741,206.181 -329.11,205.076 -330.503,204.065C-331.896,203.054 -333.349,202.102 -334.547,200.867C-335.745,199.631 -336.687,198.053 -336.782,196.334C-336.873,194.7 -336.188,193.1 -335.219,191.781C-334.25,190.462 -333.005,189.376 -331.799,188.268C-330.594,187.16 -329.403,185.999 -328.581,184.583C-328.17,183.875 -327.857,183.106 -327.703,182.302C-327.549,181.498 -327.558,180.658 -327.778,179.869L-327.778,179.869Z" style="fill:rgb(103,108,83);fill-rule:nonzero;"/>
                    <path id="path14111" d="M-198.281,200.587C-198.207,198.465 -199.268,196.336 -201.007,195.117C-202.746,193.898 -205.109,193.626 -207.079,194.42C-208.501,194.992 -209.675,196.059 -210.636,197.253C-211.597,198.447 -212.37,199.778 -213.212,201.059C-214.053,202.34 -214.981,203.59 -216.18,204.544C-217.379,205.498 -218.887,206.139 -220.417,206.047C-221.352,205.992 -222.259,205.665 -223.058,205.176C-223.857,204.688 -224.551,204.04 -225.154,203.324C-226.362,201.893 -227.211,200.201 -228.212,198.618C-229.213,197.035 -230.429,195.505 -232.098,194.656C-232.933,194.232 -233.871,193.992 -234.806,194.039C-235.741,194.087 -236.671,194.432 -237.363,195.063C-237.929,195.581 -238.323,196.274 -238.53,197.013C-238.736,197.752 -238.762,198.534 -238.66,199.295C-238.457,200.816 -237.76,202.222 -237.036,203.575C-236.312,204.928 -235.544,206.282 -235.175,207.771C-234.991,208.516 -234.91,209.291 -234.994,210.054C-235.077,210.816 -235.329,211.567 -235.77,212.195C-236.463,213.18 -237.597,213.813 -238.786,214.008C-239.974,214.202 -241.209,213.981 -242.314,213.502C-244.524,212.543 -246.162,210.643 -247.704,208.792C-249.246,206.941 -250.844,205.019 -253.021,203.987C-254.109,203.471 -255.33,203.198 -256.527,203.332C-257.724,203.466 -258.891,204.029 -259.648,204.966C-260.114,205.543 -260.414,206.239 -260.618,206.952C-260.821,207.665 -260.933,208.401 -261.059,209.132C-261.185,209.863 -261.327,210.595 -261.588,211.29C-261.848,211.984 -262.234,212.644 -262.788,213.138C-263.314,213.609 -263.972,213.911 -264.646,214.121C-265.321,214.331 -266.018,214.454 -266.707,214.608C-267.396,214.762 -268.085,214.951 -268.71,215.28C-269.335,215.609 -269.897,216.091 -270.22,216.719C-270.535,217.33 -270.605,218.054 -270.461,218.725C-270.316,219.397 -269.965,220.017 -269.498,220.521C-268.564,221.528 -267.214,222.053 -265.868,222.33C-264.522,222.608 -263.139,222.669 -261.788,222.923C-260.438,223.178 -259.077,223.653 -258.093,224.613C-257.489,225.2 -257.054,225.949 -256.783,226.746C-256.513,227.544 -256.405,228.391 -256.405,229.233C-256.406,230.918 -256.835,232.569 -257.205,234.212C-257.576,235.856 -257.891,237.548 -257.663,239.217C-257.549,240.052 -257.297,240.873 -256.87,241.599C-256.443,242.325 -255.838,242.954 -255.098,243.358C-254.19,243.853 -253.108,243.991 -252.087,243.821C-251.067,243.652 -250.108,243.186 -249.287,242.557C-247.644,241.299 -246.578,239.444 -245.651,237.594C-244.724,235.744 -243.874,233.82 -242.519,232.256C-241.842,231.474 -241.04,230.789 -240.118,230.321C-239.196,229.852 -238.149,229.606 -237.118,229.702C-236.047,229.801 -235.025,230.268 -234.187,230.943C-233.348,231.618 -232.686,232.495 -232.179,233.444C-231.164,235.343 -230.766,237.499 -230.266,239.593C-229.766,241.687 -229.115,243.824 -227.712,245.457C-227.01,246.273 -226.124,246.946 -225.113,247.314C-224.101,247.682 -222.961,247.733 -221.948,247.369C-221.119,247.07 -220.398,246.505 -219.856,245.81C-219.315,245.115 -218.946,244.294 -218.719,243.443C-218.265,241.739 -218.369,239.944 -218.475,238.185C-218.58,236.425 -218.681,234.629 -218.22,232.928C-217.99,232.077 -217.617,231.258 -217.071,230.567C-216.525,229.875 -215.8,229.314 -214.969,229.022C-213.95,228.664 -212.829,228.723 -211.769,228.93C-210.709,229.138 -209.682,229.488 -208.624,229.707C-207.566,229.927 -206.45,230.01 -205.419,229.686C-204.904,229.524 -204.418,229.26 -204.024,228.89C-203.631,228.52 -203.333,228.043 -203.206,227.518C-203.105,227.099 -203.113,226.658 -203.203,226.237C-203.292,225.815 -203.461,225.413 -203.675,225.039C-204.102,224.291 -204.702,223.66 -205.276,223.018C-205.851,222.377 -206.415,221.704 -206.749,220.91C-206.916,220.513 -207.022,220.088 -207.034,219.657C-207.046,219.227 -206.96,218.791 -206.762,218.409C-206.555,218.012 -206.231,217.681 -205.854,217.441C-205.477,217.2 -205.049,217.046 -204.61,216.959C-203.732,216.787 -202.826,216.881 -201.937,216.979C-201.047,217.077 -200.143,217.178 -199.263,217.019C-198.822,216.939 -198.391,216.793 -198.009,216.561C-197.627,216.328 -197.295,216.007 -197.077,215.616C-196.708,214.957 -196.692,214.138 -196.918,213.417C-197.144,212.696 -197.591,212.062 -198.106,211.509C-199.135,210.403 -200.465,209.553 -201.245,208.259C-201.974,207.049 -202.132,205.512 -201.666,204.179C-201.2,202.846 -200.117,201.742 -198.794,201.251" style="fill:rgb(108,103,83);fill-rule:nonzero;"/>
                    <path id="path19309" d="M-258.006,81.406C-259.553,79.211 -261.714,77.454 -264.177,76.385C-266.64,75.316 -269.399,74.939 -272.059,75.307C-274.598,75.658 -277.005,76.668 -279.258,77.89C-281.511,79.112 -283.639,80.552 -285.849,81.849C-288.06,83.146 -290.381,84.309 -292.871,84.914C-295.362,85.52 -298.051,85.537 -300.432,84.588C-302.772,83.654 -304.66,81.868 -306.375,80.021C-308.089,78.175 -309.715,76.207 -311.77,74.75C-312.797,74.021 -313.93,73.426 -315.144,73.089C-316.357,72.752 -317.656,72.679 -318.88,72.976C-320.105,73.272 -321.249,73.949 -322.025,74.942C-322.801,75.935 -323.183,77.247 -322.971,78.489C-322.769,79.671 -322.057,80.717 -321.182,81.537C-320.307,82.357 -319.269,82.98 -318.245,83.603C-317.22,84.226 -316.19,84.865 -315.34,85.711C-314.489,86.556 -313.822,87.638 -313.69,88.83C-313.591,89.729 -313.805,90.653 -314.258,91.436C-314.711,92.218 -315.397,92.857 -316.192,93.288C-316.988,93.718 -317.889,93.941 -318.792,93.969C-319.696,93.997 -320.601,93.833 -321.451,93.524C-323.15,92.907 -324.601,91.73 -325.792,90.37C-326.984,89.01 -327.939,87.463 -328.896,85.929C-329.852,84.395 -330.822,82.856 -332.036,81.517C-333.251,80.177 -334.734,79.035 -336.454,78.476C-337.314,78.197 -338.225,78.067 -339.127,78.134C-340.029,78.201 -340.919,78.466 -341.691,78.936C-342.463,79.407 -343.113,80.084 -343.519,80.892C-343.925,81.7 -344.079,82.637 -343.919,83.527C-343.701,84.738 -342.926,85.785 -342.011,86.608C-341.096,87.431 -340.033,88.068 -339.033,88.784C-338.032,89.5 -337.069,90.322 -336.465,91.394C-336.163,91.93 -335.957,92.524 -335.902,93.137C-335.848,93.75 -335.949,94.381 -336.229,94.929C-336.484,95.428 -336.882,95.848 -337.344,96.165C-337.805,96.483 -338.33,96.702 -338.872,96.848C-339.954,97.139 -341.089,97.144 -342.208,97.205C-343.328,97.266 -344.474,97.394 -345.472,97.904C-345.972,98.158 -346.427,98.508 -346.769,98.953C-347.111,99.397 -347.335,99.938 -347.366,100.498C-347.404,101.166 -347.162,101.838 -346.743,102.361C-346.324,102.884 -345.738,103.261 -345.102,103.474C-343.832,103.899 -342.427,103.672 -341.168,103.215C-339.908,102.759 -338.739,102.083 -337.498,101.58C-336.256,101.077 -334.888,100.747 -333.578,101.028C-332.765,101.202 -332.011,101.607 -331.378,102.144C-330.745,102.682 -330.229,103.349 -329.816,104.069C-328.988,105.51 -328.571,107.142 -328.13,108.744C-327.688,110.345 -327.2,111.968 -326.257,113.336C-325.786,114.02 -325.203,114.633 -324.508,115.089C-323.814,115.544 -323.005,115.838 -322.176,115.877C-321.334,115.917 -320.489,115.692 -319.747,115.293C-319.004,114.894 -318.362,114.323 -317.827,113.672C-316.757,112.368 -316.127,110.769 -315.534,109.19C-314.942,107.612 -314.357,106.002 -313.359,104.643C-312.859,103.964 -312.257,103.354 -311.549,102.897C-310.841,102.439 -310.024,102.139 -309.182,102.089C-307.91,102.013 -306.653,102.514 -305.621,103.262C-304.589,104.01 -303.753,104.993 -302.964,105.995C-302.175,106.997 -301.418,108.031 -300.503,108.919C-299.588,109.807 -298.492,110.552 -297.25,110.839C-296.175,111.088 -295.031,110.979 -293.994,110.6C-292.958,110.221 -292.027,109.579 -291.25,108.795C-289.697,107.228 -288.777,105.145 -288.085,103.049C-287.393,100.953 -286.892,98.788 -286.008,96.766C-285.124,94.743 -283.796,92.826 -281.87,91.747C-280.093,90.752 -277.957,90.559 -275.936,90.813C-273.916,91.067 -271.974,91.738 -270.043,92.385C-268.112,93.032 -266.153,93.664 -264.123,93.835C-262.094,94.006 -259.96,93.68 -258.271,92.543C-256.469,91.33 -255.31,89.214 -255.258,87.043C-255.206,84.871 -256.264,82.703 -258.006,81.406L-258.006,81.406Z" style="fill:rgb(36,34,28);fill-rule:nonzero;"/>
                    <path id="path21342" d="M-165.641,175.032C-164.142,171.364 -162.744,167.655 -161.449,163.91C-160.022,159.783 -158.708,155.541 -158.612,151.175C-158.564,148.991 -158.827,146.79 -159.515,144.718C-160.204,142.646 -161.328,140.704 -162.877,139.165C-163.668,138.38 -164.575,137.697 -165.6,137.261C-166.626,136.825 -167.776,136.645 -168.869,136.862C-170.095,137.106 -171.167,137.819 -172.201,138.52C-173.235,139.221 -174.302,139.939 -175.525,140.196C-176.467,140.394 -177.459,140.301 -178.374,140C-179.288,139.699 -180.128,139.196 -180.874,138.587C-182.366,137.369 -183.47,135.754 -184.596,134.192C-185.722,132.629 -186.923,131.065 -188.536,130.013C-189.343,129.487 -190.247,129.099 -191.198,128.948C-192.149,128.797 -193.148,128.891 -194.027,129.284C-195.242,129.828 -196.163,130.917 -196.672,132.146C-197.18,133.376 -197.304,134.738 -197.216,136.065C-197.04,138.721 -196.05,141.267 -195.825,143.919C-195.675,145.677 -195.87,147.471 -196.468,149.131C-197.065,150.79 -198.072,152.311 -199.417,153.452C-201.573,155.279 -204.45,156.045 -206.707,157.747C-207.835,158.597 -208.813,159.712 -209.249,161.056C-209.467,161.729 -209.544,162.45 -209.438,163.149C-209.331,163.847 -209.036,164.521 -208.568,165.05C-208.16,165.511 -207.629,165.856 -207.054,166.076C-206.48,166.296 -205.862,166.394 -205.247,166.401C-204.016,166.416 -202.811,166.075 -201.64,165.694C-200.47,165.314 -199.303,164.889 -198.083,164.727C-196.863,164.566 -195.56,164.691 -194.517,165.344C-193.779,165.807 -193.208,166.516 -192.859,167.315C-192.511,168.114 -192.38,168.999 -192.422,169.869C-192.508,171.61 -193.267,173.249 -194.177,174.736C-195.087,176.222 -196.162,177.608 -196.984,179.144C-197.806,180.681 -198.373,182.425 -198.154,184.154C-197.935,185.876 -196.941,187.439 -195.631,188.579C-194.321,189.718 -192.713,190.467 -191.064,191.008C-187.765,192.091 -184.181,192.414 -181.148,194.104C-178.278,195.702 -176.187,198.362 -174.002,200.815C-172.91,202.042 -171.771,203.237 -170.472,204.243C-169.174,205.249 -167.704,206.064 -166.109,206.454C-164.118,206.94 -161.965,206.735 -160.102,205.882C-158.239,205.028 -156.678,203.532 -155.747,201.706C-154.816,199.881 -154.52,197.739 -154.922,195.73C-155.324,193.72 -156.422,191.857 -157.984,190.53" style="fill:rgb(36,34,28);fill-rule:nonzero;"/>
                    <path id="path23463" d="M-207.222,172.916C-211.414,174.051 -216.061,173.393 -219.772,171.138C-223.484,168.883 -226.21,165.063 -227.134,160.819C-228.04,156.661 -227.276,152.256 -228.334,148.133C-228.863,146.072 -229.887,144.077 -231.545,142.743C-232.373,142.075 -233.352,141.585 -234.394,141.372C-235.436,141.159 -236.543,141.23 -237.531,141.624C-238.47,141.998 -239.271,142.642 -240.086,143.239C-240.901,143.837 -241.774,144.41 -242.766,144.603C-243.458,144.738 -244.18,144.68 -244.86,144.491C-245.54,144.303 -246.18,143.987 -246.777,143.612C-247.972,142.861 -249,141.876 -250.145,141.052C-251.29,140.228 -252.618,139.55 -254.029,139.556C-254.734,139.559 -255.446,139.741 -256.037,140.126C-256.628,140.51 -257.091,141.106 -257.264,141.79C-257.445,142.506 -257.304,143.276 -256.987,143.943C-256.671,144.61 -256.19,145.185 -255.674,145.713C-255.158,146.241 -254.602,146.73 -254.102,147.273C-253.601,147.816 -253.152,148.421 -252.895,149.113C-252.494,150.19 -252.59,151.393 -252.863,152.509C-253.136,153.625 -253.578,154.693 -253.87,155.805C-254.162,156.917 -254.298,158.11 -253.952,159.206C-253.779,159.753 -253.484,160.268 -253.07,160.666C-252.656,161.065 -252.12,161.343 -251.55,161.414C-250.955,161.488 -250.351,161.336 -249.804,161.091C-249.257,160.845 -248.757,160.508 -248.251,160.187C-247.745,159.865 -247.224,159.556 -246.652,159.375C-246.081,159.194 -245.449,159.15 -244.887,159.358C-244.536,159.488 -244.221,159.713 -243.978,159.998C-243.735,160.283 -243.561,160.626 -243.466,160.988C-243.275,161.712 -243.401,162.5 -243.736,163.17C-244.072,163.84 -244.606,164.398 -245.215,164.834C-245.823,165.271 -246.507,165.593 -247.205,165.867C-248.599,166.415 -250.084,166.793 -251.328,167.628C-251.951,168.046 -252.506,168.579 -252.875,169.231C-253.245,169.883 -253.418,170.659 -253.28,171.396C-253.153,172.075 -252.764,172.694 -252.241,173.147C-251.718,173.599 -251.067,173.892 -250.39,174.037C-249.038,174.327 -247.629,174.044 -246.301,173.658C-244.972,173.272 -243.66,172.782 -242.282,172.648C-241.594,172.581 -240.892,172.606 -240.222,172.778C-239.552,172.95 -238.914,173.273 -238.417,173.754C-237.97,174.186 -237.646,174.736 -237.442,175.323C-237.238,175.909 -237.151,176.533 -237.142,177.154C-237.124,178.397 -237.411,179.62 -237.637,180.842C-237.862,182.064 -238.028,183.327 -237.769,184.542C-237.639,185.15 -237.402,185.739 -237.037,186.242C-236.672,186.745 -236.176,187.159 -235.598,187.388C-235.051,187.605 -234.444,187.651 -233.863,187.563C-233.281,187.475 -232.724,187.256 -232.214,186.962C-231.195,186.373 -230.376,185.5 -229.563,184.65C-228.749,183.8 -227.905,182.946 -226.857,182.41C-226.333,182.142 -225.762,181.958 -225.175,181.915C-224.588,181.871 -223.986,181.972 -223.464,182.244C-222.666,182.659 -222.111,183.437 -221.754,184.263C-221.397,185.089 -221.209,185.975 -220.954,186.838C-220.698,187.701 -220.361,188.563 -219.761,189.234C-219.461,189.569 -219.097,189.851 -218.684,190.029C-218.271,190.208 -217.809,190.281 -217.365,190.207C-216.969,190.142 -216.596,189.962 -216.283,189.711C-215.971,189.46 -215.717,189.14 -215.522,188.79C-215.134,188.088 -214.985,187.28 -214.908,186.481C-214.831,185.683 -214.82,184.877 -214.678,184.088C-214.537,183.298 -214.252,182.511 -213.706,181.924C-213.154,181.33 -212.372,180.987 -211.573,180.851C-210.775,180.715 -209.955,180.772 -209.153,180.882C-208.35,180.993 -207.555,181.156 -206.748,181.233C-205.942,181.311 -205.115,181.299 -204.339,181.065C-203.222,180.729 -202.256,179.919 -201.728,178.878C-201.201,177.838 -201.12,176.58 -201.509,175.48C-201.898,174.379 -202.752,173.452 -203.817,172.975C-204.881,172.497 -206.142,172.475 -207.222,172.916L-207.222,172.916Z" style="fill:rgb(167,172,147);fill-rule:nonzero;"/>
                </g>
                <circle id="path82662" serif:id="path8266" cx="-273" cy="189.75" r="121.5" style="fill:none;stroke:white;stroke-width:5.61px;"/>
            </g>
        </g>
    </g>
</svg>
