<?xml version="1.0" encoding="UTF-8" standalone="no"?>
<!DOCTYPE svg PUBLIC "-//W3C//DTD SVG 1.1//EN" "http://www.w3.org/Graphics/SVG/1.1/DTD/svg11.dtd">
<svg width="100%" height="100%" viewBox="0 0 61 74" version="1.1" xmlns="http://www.w3.org/2000/svg" xmlns:xlink="http://www.w3.org/1999/xlink" xml:space="preserve" xmlns:serif="http://www.serif.com/" style="fill-rule:evenodd;clip-rule:evenodd;stroke-linejoin:round;stroke-miterlimit:2;">
    <g transform="matrix(1,0,0,1,-12.5082,-64.0633)">
        <g transform="matrix(0.33196,0,0,0.33196,-5.44548,51.6695)">
            <g id="g83163" transform="matrix(1,0,0,1,-137.659,-191.613)">
                <g opacity="0.98">
                    <g id="path36581" transform="matrix(3.01242,0,0,3.01242,144.663,-235.69)">
                        <path d="M45.939,226.471L45.939,226.471C55.3,224.633 66.558,215.509 71.418,205.169C76.512,194.33 75.941,176.129 74.942,166.563C64.559,165.181 59.021,169.347 45.939,155.035C32.027,169.948 27.118,165.259 17.091,166.563C16.091,176.129 15.52,194.33 20.615,205.169C25.475,215.509 36.578,224.633 45.939,226.471Z" style="fill:url(#_Linear1);fill-rule:nonzero;stroke:white;stroke-width:1.59px;"/>
                    </g>
                    <path id="path39513" d="M283.094,252.742L283.094,427.396C305.981,422.902 333.506,400.597 345.388,375.316C357.844,348.816 356.447,304.316 354.003,280.927C328.619,277.548 315.079,287.733 283.094,252.742ZM283.094,427.396L283.094,252.742C249.081,289.203 237.078,277.74 212.564,280.927C210.119,304.316 208.723,348.816 221.178,375.316C233.061,400.597 260.208,422.902 283.094,427.396Z" style="fill:rgb(166,132,22);fill-rule:nonzero;"/>
                    <path id="path43468" d="M299.907,421.038C343.394,391.022 352.883,342.175 355.122,299.04C355.347,294.897 355.634,308.84 355.502,317.469C355.194,337.45 353.326,351.857 349.313,365.199C345.919,376.483 339.504,387.455 330.211,397.868C322.193,406.852 313.031,414.194 302.424,420.132C298.514,422.321 296.516,423.04 299.907,421.038Z" style="fill:rgb(127,101,16);fill-rule:nonzero;"/>
                    <path id="path48970" d="M283.094,252.742L283.094,427.396C293.589,347.722 286.075,291.163 283.094,252.742ZM283.094,427.396L283.094,252.742C249.081,289.203 237.078,277.74 212.564,280.927C210.119,304.316 208.723,348.816 221.178,375.316C233.061,400.597 260.208,422.902 283.094,427.396Z" style="fill:rgb(205,162,26);fill-rule:nonzero;"/>
                    <path id="path61322" d="M283.095,252.743C249.081,289.204 237.078,277.74 212.564,280.927C212.631,281.428 212.404,281.906 212.472,282.403C236.842,279.309 249.175,290.596 283.081,254.256C283.084,253.748 283.093,253.254 283.095,252.743L283.095,252.743Z" style="fill:rgb(127,101,16);fill-rule:nonzero;"/>
                    <path id="path76860" d="M283.068,252.743C316.733,288.394 329.32,277.343 354.003,280.927C353.936,281.428 354.229,281.972 354.161,282.469C329.791,279.375 316.988,290.596 283.081,254.256C283.078,253.748 283.07,253.254 283.068,252.743L283.068,252.743Z" style="fill:rgb(127,101,16);fill-rule:nonzero;"/>
                    <g id="path78420" transform="matrix(0.264583,0,0,0.264583,0,0)">
                        <path d="M1069.96,955.242C982.024,1049.51 933.009,1059.01 881.16,1059.46C934.103,1059.56 982.646,1053.05 1070.41,960.723C1070.27,958.929 1070.1,957.017 1069.96,955.242ZM851.379,1059.28C836.472,1059.2 820.762,1059.51 803.39,1061.77C794.151,1150.17 788.874,1318.36 835.949,1418.52C880.858,1514.07 983.463,1598.37 1069.96,1615.36C1070.02,1614.95 1070.06,1614.55 1070.12,1614.14C984.812,1594.76 885.578,1512.05 841.619,1418.52C794.544,1318.36 799.821,1150.17 809.059,1061.77C825.191,1059.67 839.839,1059.29 853.793,1059.3C852.98,1059.29 852.197,1059.28 851.379,1059.28L851.379,1059.28Z" style="fill:rgb(127,101,16);fill-rule:nonzero;"/>
                    </g>
                </g>
            </g>
        </g>
    </g>
    <defs>
        <linearGradient id="_Linear1" x1="0" y1="0" x2="1" y2="0" gradientUnits="userSpaceOnUse" gradientTransform="matrix(34.218,29.4581,-29.4581,34.218,35.2959,174.028)"><stop offset="0" style="stop-color:rgb(143,143,143);stop-opacity:1"/><stop offset="1" style="stop-color:rgb(107,107,107);stop-opacity:1"/></linearGradient>
    </defs>
</svg>
